<svg width="1920" height="1080" viewBox="0 0 1920 1080" fill="none" xmlns="http://www.w3.org/2000/svg">
  <defs>
    <linearGradient id="bg" x1="960" y1="0" x2="960" y2="1080" gradientUnits="userSpaceOnUse">
      <stop stop-color="#1A1742"/>
      <stop offset="0.45" stop-color="#2D2A74"/>
      <stop offset="1" stop-color="#5B5AAE"/>
    </linearGradient>
    <linearGradient id="haze" x1="960" y1="500" x2="960" y2="1080" gradientUnits="userSpaceOnUse">
      <stop stop-color="#FF9ED7" stop-opacity="0.45"/>
      <stop offset="1" stop-color="#7BC8FF" stop-opacity="0"/>
    </linearGradient>
    <linearGradient id="ground" x1="960" y1="780" x2="960" y2="1080" gradientUnits="userSpaceOnUse">
      <stop stop-color="#2A2566"/>
      <stop offset="1" stop-color="#17153D"/>
    </linearGradient>
    <linearGradient id="cityGlow" x1="960" y1="640" x2="960" y2="930" gradientUnits="userSpaceOnUse">
      <stop stop-color="#7DD3FC" stop-opacity="0.32"/>
      <stop offset="1" stop-color="#7DD3FC" stop-opacity="0"/>
    </linearGradient>
  </defs>

  <rect width="1920" height="1080" fill="url(#bg)"/>
  <rect width="1920" height="1080" fill="url(#haze)"/>

  <circle cx="1500" cy="220" r="110" fill="#FFE1F3" fill-opacity="0.95"/>
  <circle cx="1480" cy="200" r="92" fill="#FFF3FF" fill-opacity="0.75"/>

  <g fill="#ffffff" opacity="0.8">
    <circle cx="210" cy="130" r="2"/>
    <circle cx="380" cy="210" r="1.8"/>
    <circle cx="520" cy="150" r="1.5"/>
    <circle cx="760" cy="120" r="1.7"/>
    <circle cx="980" cy="250" r="1.8"/>
    <circle cx="1230" cy="170" r="1.6"/>
    <circle cx="1360" cy="120" r="1.5"/>
    <circle cx="1620" cy="120" r="1.6"/>
    <circle cx="1720" cy="240" r="1.8"/>
    <circle cx="1840" cy="180" r="1.7"/>
  </g>

  <rect y="700" width="1920" height="380" fill="url(#ground)"/>
  <rect y="630" width="1920" height="300" fill="url(#cityGlow)"/>

  <g fill="#0F122E">
    <rect x="120" y="560" width="78" height="220"/>
    <rect x="210" y="510" width="84" height="270"/>
    <rect x="305" y="590" width="52" height="190"/>
    <rect x="370" y="530" width="90" height="250"/>
    <rect x="470" y="500" width="68" height="280"/>
    <rect x="550" y="580" width="62" height="200"/>
    <rect x="640" y="520" width="88" height="260"/>
    <rect x="740" y="470" width="72" height="310"/>
    <rect x="824" y="560" width="56" height="220"/>
    <rect x="930" y="515" width="78" height="265"/>
    <rect x="1020" y="575" width="66" height="205"/>
    <rect x="1100" y="500" width="82" height="280"/>
    <rect x="1194" y="540" width="74" height="240"/>
    <rect x="1280" y="490" width="76" height="290"/>
    <rect x="1370" y="560" width="66" height="220"/>
    <rect x="1450" y="530" width="84" height="250"/>
    <rect x="1546" y="500" width="72" height="280"/>
    <rect x="1632" y="580" width="64" height="200"/>
    <rect x="1710" y="540" width="82" height="240"/>
  </g>

  <g fill="#84CCFF" opacity="0.7">
    <rect x="222" y="534" width="10" height="14"/>
    <rect x="250" y="564" width="10" height="14"/>
    <rect x="388" y="560" width="10" height="14"/>
    <rect x="498" y="548" width="10" height="14"/>
    <rect x="656" y="540" width="10" height="14"/>
    <rect x="760" y="502" width="10" height="14"/>
    <rect x="944" y="546" width="10" height="14"/>
    <rect x="1120" y="530" width="10" height="14"/>
    <rect x="1312" y="524" width="10" height="14"/>
    <rect x="1470" y="560" width="10" height="14"/>
    <rect x="1568" y="522" width="10" height="14"/>
    <rect x="1724" y="566" width="10" height="14"/>
  </g>

  <g transform="translate(340 680)">
    <path d="M42 0C58 0 76 10 88 28L130 94L112 106L72 50C64 38 53 32 42 32C30 32 20 38 12 50L-28 106L-46 94L-4 28C8 10 26 0 42 0Z" fill="#FAD6EA"/>
    <path d="M18 40L66 40L82 140L4 140L18 40Z" fill="#F472B6"/>
    <rect x="18" y="140" width="16" height="92" rx="8" fill="#0F122E"/>
    <rect x="52" y="140" width="16" height="92" rx="8" fill="#0F122E"/>
    <circle cx="42" cy="24" r="20" fill="#FDE7F3"/>
    <path d="M24 18C24 7 33 -2 44 -2C54 -2 62 6 62 16C62 30 52 40 42 40C32 40 24 30 24 18Z" fill="#2B224E"/>
  </g>

  <g fill="#FFC1E3" opacity="0.72">
    <path d="M180 420C188 408 198 404 210 410C200 416 194 424 192 434C184 430 180 426 180 420Z"/>
    <path d="M250 510C258 500 268 498 280 504C270 510 264 520 262 530C254 526 250 520 250 510Z"/>
    <path d="M1680 470C1688 458 1698 454 1710 460C1700 466 1694 474 1692 484C1684 480 1680 476 1680 470Z"/>
    <path d="M1580 560C1588 550 1598 546 1610 552C1600 558 1594 566 1592 576C1584 572 1580 566 1580 560Z"/>
  </g>
</svg>
